<mxfile host="app.diagrams.net" agent="Mozilla/5.0 (Windows NT 10.0; Win64; x64) AppleWebKit/537.36 (KHTML, like Gecko) Chrome/130.0.0.0 Safari/537.36" version="24.8.2">
  <diagram name="페이지-1" id="tr_vGSFYejngqjDLqhAb">
    <mxGraphModel dx="733" dy="1049" grid="1" gridSize="10" guides="1" tooltips="1" connect="1" arrows="1" fold="1" page="1" pageScale="1" pageWidth="827" pageHeight="1169" math="0" shadow="0">
      <root>
        <mxCell id="0" />
        <mxCell id="1" parent="0" />
        <mxCell id="n8UsSOm6vdMU9eZMKMIt-1" value="고객" style="whiteSpace=wrap;html=1;align=center;" parent="1" vertex="1">
          <mxGeometry x="400" y="545" width="100" height="40" as="geometry" />
        </mxCell>
        <mxCell id="n8UsSOm6vdMU9eZMKMIt-2" value="고객명" style="ellipse;whiteSpace=wrap;html=1;align=center;" parent="1" vertex="1">
          <mxGeometry x="270" y="440" width="100" height="40" as="geometry" />
        </mxCell>
        <mxCell id="n8UsSOm6vdMU9eZMKMIt-3" value="전화번호" style="ellipse;whiteSpace=wrap;html=1;align=center;fontStyle=4;" parent="1" vertex="1">
          <mxGeometry x="413" y="440" width="100" height="40" as="geometry" />
        </mxCell>
        <mxCell id="n8UsSOm6vdMU9eZMKMIt-4" value="이메일" style="ellipse;whiteSpace=wrap;html=1;align=center;fontStyle=4;" parent="1" vertex="1">
          <mxGeometry x="517" y="470" width="100" height="40" as="geometry" />
        </mxCell>
        <mxCell id="n8UsSOm6vdMU9eZMKMIt-5" value="고객코드" style="ellipse;whiteSpace=wrap;html=1;align=center;fontStyle=4;" parent="1" vertex="1">
          <mxGeometry x="630" y="490" width="100" height="40" as="geometry" />
        </mxCell>
        <mxCell id="n8UsSOm6vdMU9eZMKMIt-7" value="" style="endArrow=none;html=1;rounded=0;exitX=0.5;exitY=1;exitDx=0;exitDy=0;entryX=0.5;entryY=0;entryDx=0;entryDy=0;" parent="1" source="n8UsSOm6vdMU9eZMKMIt-3" target="n8UsSOm6vdMU9eZMKMIt-1" edge="1">
          <mxGeometry relative="1" as="geometry">
            <mxPoint x="510" y="490" as="sourcePoint" />
            <mxPoint x="680" y="510" as="targetPoint" />
          </mxGeometry>
        </mxCell>
        <mxCell id="n8UsSOm6vdMU9eZMKMIt-8" value="" style="endArrow=none;html=1;rounded=0;exitX=0.5;exitY=1;exitDx=0;exitDy=0;entryX=0.5;entryY=0;entryDx=0;entryDy=0;" parent="1" source="n8UsSOm6vdMU9eZMKMIt-2" target="n8UsSOm6vdMU9eZMKMIt-1" edge="1">
          <mxGeometry relative="1" as="geometry">
            <mxPoint x="400" y="500" as="sourcePoint" />
            <mxPoint x="460" y="545" as="targetPoint" />
          </mxGeometry>
        </mxCell>
        <mxCell id="n8UsSOm6vdMU9eZMKMIt-9" value="" style="endArrow=none;html=1;rounded=0;exitX=0;exitY=0.5;exitDx=0;exitDy=0;entryX=0.5;entryY=0;entryDx=0;entryDy=0;" parent="1" source="n8UsSOm6vdMU9eZMKMIt-4" target="n8UsSOm6vdMU9eZMKMIt-1" edge="1">
          <mxGeometry relative="1" as="geometry">
            <mxPoint x="630" y="520" as="sourcePoint" />
            <mxPoint x="460" y="540" as="targetPoint" />
          </mxGeometry>
        </mxCell>
        <mxCell id="n8UsSOm6vdMU9eZMKMIt-10" value="" style="endArrow=none;html=1;rounded=0;exitX=1;exitY=0.5;exitDx=0;exitDy=0;entryX=0;entryY=0.5;entryDx=0;entryDy=0;" parent="1" source="n8UsSOm6vdMU9eZMKMIt-1" target="n8UsSOm6vdMU9eZMKMIt-5" edge="1">
          <mxGeometry relative="1" as="geometry">
            <mxPoint x="530" y="550" as="sourcePoint" />
            <mxPoint x="690" y="550" as="targetPoint" />
          </mxGeometry>
        </mxCell>
        <mxCell id="n8UsSOm6vdMU9eZMKMIt-12" value="주소" style="ellipse;whiteSpace=wrap;html=1;align=center;" parent="1" vertex="1">
          <mxGeometry x="260" y="530" width="100" height="40" as="geometry" />
        </mxCell>
        <mxCell id="n8UsSOm6vdMU9eZMKMIt-13" value="" style="endArrow=none;html=1;rounded=0;exitX=1;exitY=0.5;exitDx=0;exitDy=0;entryX=0;entryY=0.5;entryDx=0;entryDy=0;" parent="1" source="n8UsSOm6vdMU9eZMKMIt-12" target="n8UsSOm6vdMU9eZMKMIt-1" edge="1">
          <mxGeometry relative="1" as="geometry">
            <mxPoint x="377" y="570" as="sourcePoint" />
            <mxPoint x="427" y="615" as="targetPoint" />
          </mxGeometry>
        </mxCell>
        <mxCell id="n8UsSOm6vdMU9eZMKMIt-15" value="기본주소" style="ellipse;whiteSpace=wrap;html=1;align=center;" parent="1" vertex="1">
          <mxGeometry x="120" y="510" width="100" height="40" as="geometry" />
        </mxCell>
        <mxCell id="n8UsSOm6vdMU9eZMKMIt-16" value="" style="endArrow=none;html=1;rounded=0;exitX=1;exitY=0.5;exitDx=0;exitDy=0;entryX=0;entryY=0.5;entryDx=0;entryDy=0;" parent="1" source="n8UsSOm6vdMU9eZMKMIt-15" target="n8UsSOm6vdMU9eZMKMIt-12" edge="1">
          <mxGeometry relative="1" as="geometry">
            <mxPoint x="237" y="550" as="sourcePoint" />
            <mxPoint x="260" y="545" as="targetPoint" />
          </mxGeometry>
        </mxCell>
        <mxCell id="n8UsSOm6vdMU9eZMKMIt-17" value="상세주소" style="ellipse;whiteSpace=wrap;html=1;align=center;" parent="1" vertex="1">
          <mxGeometry x="120" y="570" width="100" height="40" as="geometry" />
        </mxCell>
        <mxCell id="n8UsSOm6vdMU9eZMKMIt-18" value="" style="endArrow=none;html=1;rounded=0;exitX=1;exitY=0.5;exitDx=0;exitDy=0;entryX=0;entryY=0.5;entryDx=0;entryDy=0;" parent="1" source="n8UsSOm6vdMU9eZMKMIt-17" target="n8UsSOm6vdMU9eZMKMIt-12" edge="1">
          <mxGeometry relative="1" as="geometry">
            <mxPoint x="237" y="610" as="sourcePoint" />
            <mxPoint x="260" y="605" as="targetPoint" />
          </mxGeometry>
        </mxCell>
        <mxCell id="n8UsSOm6vdMU9eZMKMIt-20" value="가입일" style="ellipse;whiteSpace=wrap;html=1;align=center;" parent="1" vertex="1">
          <mxGeometry x="290" y="620" width="100" height="40" as="geometry" />
        </mxCell>
        <mxCell id="n8UsSOm6vdMU9eZMKMIt-21" value="" style="endArrow=none;html=1;rounded=0;entryX=0;entryY=0.5;entryDx=0;entryDy=0;exitX=0.6;exitY=0;exitDx=0;exitDy=0;exitPerimeter=0;" parent="1" source="n8UsSOm6vdMU9eZMKMIt-20" target="n8UsSOm6vdMU9eZMKMIt-1" edge="1">
          <mxGeometry relative="1" as="geometry">
            <mxPoint x="350" y="600" as="sourcePoint" />
            <mxPoint x="410" y="575" as="targetPoint" />
          </mxGeometry>
        </mxCell>
        <mxCell id="YHpqsiuIh4vbDSGsJm8K-1" value="지역" style="whiteSpace=wrap;html=1;align=center;" vertex="1" parent="1">
          <mxGeometry x="400" y="820" width="100" height="40" as="geometry" />
        </mxCell>
        <mxCell id="YHpqsiuIh4vbDSGsJm8K-2" value="지역" style="ellipse;whiteSpace=wrap;html=1;align=center;" vertex="1" parent="1">
          <mxGeometry x="270" y="780" width="100" height="40" as="geometry" />
        </mxCell>
        <mxCell id="YHpqsiuIh4vbDSGsJm8K-4" value="" style="endArrow=none;html=1;rounded=0;entryX=1;entryY=0.5;entryDx=0;entryDy=0;exitX=0;exitY=0.5;exitDx=0;exitDy=0;" edge="1" parent="1" source="YHpqsiuIh4vbDSGsJm8K-1" target="YHpqsiuIh4vbDSGsJm8K-2">
          <mxGeometry relative="1" as="geometry">
            <mxPoint x="368.82" y="877.5" as="sourcePoint" />
            <mxPoint x="368.82" y="802.5" as="targetPoint" />
          </mxGeometry>
        </mxCell>
        <mxCell id="YHpqsiuIh4vbDSGsJm8K-6" value="" style="endArrow=none;html=1;rounded=0;entryX=1;entryY=0.5;entryDx=0;entryDy=0;exitX=0;exitY=0.5;exitDx=0;exitDy=0;" edge="1" parent="1" target="YHpqsiuIh4vbDSGsJm8K-7" source="YHpqsiuIh4vbDSGsJm8K-1">
          <mxGeometry relative="1" as="geometry">
            <mxPoint x="400" y="910" as="sourcePoint" />
            <mxPoint x="369.9999999999998" y="860" as="targetPoint" />
          </mxGeometry>
        </mxCell>
        <mxCell id="YHpqsiuIh4vbDSGsJm8K-7" value="지역코드" style="ellipse;whiteSpace=wrap;html=1;align=center;fontStyle=4;" vertex="1" parent="1">
          <mxGeometry x="270" y="850" width="100" height="40" as="geometry" />
        </mxCell>
        <mxCell id="YHpqsiuIh4vbDSGsJm8K-9" value="제품" style="whiteSpace=wrap;html=1;align=center;" vertex="1" parent="1">
          <mxGeometry x="863" y="660" width="100" height="40" as="geometry" />
        </mxCell>
        <mxCell id="YHpqsiuIh4vbDSGsJm8K-36" style="edgeStyle=none;shape=connector;rounded=0;orthogonalLoop=1;jettySize=auto;html=1;exitX=0.5;exitY=1;exitDx=0;exitDy=0;entryX=0.5;entryY=0;entryDx=0;entryDy=0;strokeColor=default;align=center;verticalAlign=middle;fontFamily=Helvetica;fontSize=11;fontColor=default;labelBackgroundColor=default;endArrow=none;endFill=0;" edge="1" parent="1" source="YHpqsiuIh4vbDSGsJm8K-10" target="YHpqsiuIh4vbDSGsJm8K-9">
          <mxGeometry relative="1" as="geometry" />
        </mxCell>
        <mxCell id="YHpqsiuIh4vbDSGsJm8K-10" value="제품명" style="ellipse;whiteSpace=wrap;html=1;align=center;" vertex="1" parent="1">
          <mxGeometry x="863" y="570" width="100" height="40" as="geometry" />
        </mxCell>
        <mxCell id="YHpqsiuIh4vbDSGsJm8K-34" style="edgeStyle=none;shape=connector;rounded=0;orthogonalLoop=1;jettySize=auto;html=1;entryX=0.5;entryY=0;entryDx=0;entryDy=0;strokeColor=default;align=center;verticalAlign=middle;fontFamily=Helvetica;fontSize=11;fontColor=default;labelBackgroundColor=default;endArrow=none;endFill=0;exitX=0.5;exitY=1;exitDx=0;exitDy=0;" edge="1" parent="1" source="YHpqsiuIh4vbDSGsJm8K-13" target="YHpqsiuIh4vbDSGsJm8K-9">
          <mxGeometry relative="1" as="geometry" />
        </mxCell>
        <mxCell id="YHpqsiuIh4vbDSGsJm8K-13" value="제품코드" style="ellipse;whiteSpace=wrap;html=1;align=center;fontStyle=4;" vertex="1" parent="1">
          <mxGeometry x="750" y="580" width="100" height="40" as="geometry" />
        </mxCell>
        <mxCell id="YHpqsiuIh4vbDSGsJm8K-31" style="rounded=0;orthogonalLoop=1;jettySize=auto;html=1;entryX=0.5;entryY=0;entryDx=0;entryDy=0;endArrow=none;endFill=0;" edge="1" parent="1" source="YHpqsiuIh4vbDSGsJm8K-19" target="YHpqsiuIh4vbDSGsJm8K-9">
          <mxGeometry relative="1" as="geometry" />
        </mxCell>
        <mxCell id="YHpqsiuIh4vbDSGsJm8K-19" value="제품구분" style="ellipse;whiteSpace=wrap;html=1;align=center;" vertex="1" parent="1">
          <mxGeometry x="973" y="580" width="100" height="40" as="geometry" />
        </mxCell>
        <mxCell id="YHpqsiuIh4vbDSGsJm8K-40" value="" style="edgeStyle=none;shape=connector;rounded=0;orthogonalLoop=1;jettySize=auto;html=1;strokeColor=default;align=center;verticalAlign=middle;fontFamily=Helvetica;fontSize=11;fontColor=default;labelBackgroundColor=default;endArrow=none;endFill=0;entryX=1;entryY=0.5;entryDx=0;entryDy=0;" edge="1" parent="1" source="YHpqsiuIh4vbDSGsJm8K-37" target="YHpqsiuIh4vbDSGsJm8K-9">
          <mxGeometry relative="1" as="geometry" />
        </mxCell>
        <mxCell id="YHpqsiuIh4vbDSGsJm8K-37" value="제품색상" style="ellipse;shape=doubleEllipse;margin=3;whiteSpace=wrap;html=1;align=center;fontFamily=Helvetica;fontSize=11;fontColor=default;labelBackgroundColor=default;" vertex="1" parent="1">
          <mxGeometry x="1013" y="640" width="100" height="40" as="geometry" />
        </mxCell>
        <mxCell id="YHpqsiuIh4vbDSGsJm8K-41" style="edgeStyle=none;shape=connector;rounded=0;orthogonalLoop=1;jettySize=auto;html=1;entryX=1;entryY=0.5;entryDx=0;entryDy=0;strokeColor=default;align=center;verticalAlign=middle;fontFamily=Helvetica;fontSize=11;fontColor=default;labelBackgroundColor=default;endArrow=none;endFill=0;" edge="1" parent="1" source="YHpqsiuIh4vbDSGsJm8K-39" target="YHpqsiuIh4vbDSGsJm8K-9">
          <mxGeometry relative="1" as="geometry" />
        </mxCell>
        <mxCell id="YHpqsiuIh4vbDSGsJm8K-39" value="가격" style="ellipse;whiteSpace=wrap;html=1;align=center;" vertex="1" parent="1">
          <mxGeometry x="1013" y="700" width="100" height="40" as="geometry" />
        </mxCell>
        <mxCell id="YHpqsiuIh4vbDSGsJm8K-43" style="edgeStyle=none;shape=connector;rounded=0;orthogonalLoop=1;jettySize=auto;html=1;entryX=1;entryY=0.5;entryDx=0;entryDy=0;strokeColor=default;align=center;verticalAlign=middle;fontFamily=Helvetica;fontSize=11;fontColor=default;labelBackgroundColor=default;endArrow=none;endFill=0;" edge="1" parent="1" source="YHpqsiuIh4vbDSGsJm8K-42" target="n8UsSOm6vdMU9eZMKMIt-1">
          <mxGeometry relative="1" as="geometry" />
        </mxCell>
        <mxCell id="YHpqsiuIh4vbDSGsJm8K-42" value="제품" style="ellipse;whiteSpace=wrap;html=1;align=center;" vertex="1" parent="1">
          <mxGeometry x="600" y="546" width="100" height="40" as="geometry" />
        </mxCell>
        <mxCell id="YHpqsiuIh4vbDSGsJm8K-46" style="edgeStyle=none;shape=connector;rounded=0;orthogonalLoop=1;jettySize=auto;html=1;exitX=0.5;exitY=0;exitDx=0;exitDy=0;entryX=0.5;entryY=1;entryDx=0;entryDy=0;strokeColor=default;align=center;verticalAlign=middle;fontFamily=Helvetica;fontSize=11;fontColor=default;labelBackgroundColor=default;endArrow=none;endFill=0;" edge="1" parent="1" source="YHpqsiuIh4vbDSGsJm8K-45" target="n8UsSOm6vdMU9eZMKMIt-1">
          <mxGeometry relative="1" as="geometry" />
        </mxCell>
        <mxCell id="YHpqsiuIh4vbDSGsJm8K-48" value="N" style="edgeLabel;html=1;align=center;verticalAlign=middle;resizable=0;points=[];fontFamily=Helvetica;fontSize=11;fontColor=default;labelBackgroundColor=default;" vertex="1" connectable="0" parent="YHpqsiuIh4vbDSGsJm8K-46">
          <mxGeometry x="0.0599" y="-3" relative="1" as="geometry">
            <mxPoint x="-23" y="41" as="offset" />
          </mxGeometry>
        </mxCell>
        <mxCell id="YHpqsiuIh4vbDSGsJm8K-49" value="1" style="edgeLabel;html=1;align=center;verticalAlign=middle;resizable=0;points=[];fontFamily=Helvetica;fontSize=11;fontColor=default;labelBackgroundColor=default;" vertex="1" connectable="0" parent="YHpqsiuIh4vbDSGsJm8K-46">
          <mxGeometry x="0.3323" relative="1" as="geometry">
            <mxPoint x="-20" y="144" as="offset" />
          </mxGeometry>
        </mxCell>
        <mxCell id="YHpqsiuIh4vbDSGsJm8K-47" style="edgeStyle=none;shape=connector;rounded=0;orthogonalLoop=1;jettySize=auto;html=1;exitX=0.5;exitY=1;exitDx=0;exitDy=0;entryX=0.5;entryY=0;entryDx=0;entryDy=0;strokeColor=default;align=center;verticalAlign=middle;fontFamily=Helvetica;fontSize=11;fontColor=default;labelBackgroundColor=default;endArrow=none;endFill=0;" edge="1" parent="1" source="YHpqsiuIh4vbDSGsJm8K-45" target="YHpqsiuIh4vbDSGsJm8K-1">
          <mxGeometry relative="1" as="geometry" />
        </mxCell>
        <mxCell id="YHpqsiuIh4vbDSGsJm8K-45" value="관리" style="shape=rhombus;perimeter=rhombusPerimeter;whiteSpace=wrap;html=1;align=center;fontFamily=Helvetica;fontSize=11;fontColor=default;labelBackgroundColor=default;" vertex="1" parent="1">
          <mxGeometry x="390" y="680" width="120" height="60" as="geometry" />
        </mxCell>
        <mxCell id="YHpqsiuIh4vbDSGsJm8K-59" style="edgeStyle=none;shape=connector;rounded=0;orthogonalLoop=1;jettySize=auto;html=1;entryX=1;entryY=0.5;entryDx=0;entryDy=0;strokeColor=default;align=center;verticalAlign=middle;fontFamily=Helvetica;fontSize=11;fontColor=default;labelBackgroundColor=default;endArrow=none;endFill=0;exitX=0;exitY=0.5;exitDx=0;exitDy=0;" edge="1" parent="1" source="YHpqsiuIh4vbDSGsJm8K-50" target="n8UsSOm6vdMU9eZMKMIt-1">
          <mxGeometry relative="1" as="geometry" />
        </mxCell>
        <mxCell id="YHpqsiuIh4vbDSGsJm8K-62" value="N" style="edgeLabel;html=1;align=center;verticalAlign=middle;resizable=0;points=[];fontFamily=Helvetica;fontSize=11;fontColor=default;labelBackgroundColor=default;" vertex="1" connectable="0" parent="YHpqsiuIh4vbDSGsJm8K-59">
          <mxGeometry x="-0.0944" y="4" relative="1" as="geometry">
            <mxPoint x="38" y="30" as="offset" />
          </mxGeometry>
        </mxCell>
        <mxCell id="YHpqsiuIh4vbDSGsJm8K-60" style="edgeStyle=none;shape=connector;rounded=0;orthogonalLoop=1;jettySize=auto;html=1;exitX=1;exitY=0.5;exitDx=0;exitDy=0;entryX=0;entryY=0.5;entryDx=0;entryDy=0;strokeColor=default;align=center;verticalAlign=middle;fontFamily=Helvetica;fontSize=11;fontColor=default;labelBackgroundColor=default;endArrow=none;endFill=0;" edge="1" parent="1" source="YHpqsiuIh4vbDSGsJm8K-50" target="YHpqsiuIh4vbDSGsJm8K-9">
          <mxGeometry relative="1" as="geometry" />
        </mxCell>
        <mxCell id="YHpqsiuIh4vbDSGsJm8K-63" value="M" style="edgeLabel;html=1;align=center;verticalAlign=middle;resizable=0;points=[];fontFamily=Helvetica;fontSize=11;fontColor=default;labelBackgroundColor=default;" vertex="1" connectable="0" parent="YHpqsiuIh4vbDSGsJm8K-60">
          <mxGeometry x="0.0041" y="2" relative="1" as="geometry">
            <mxPoint x="-90" y="-17" as="offset" />
          </mxGeometry>
        </mxCell>
        <mxCell id="YHpqsiuIh4vbDSGsJm8K-50" value="구매" style="shape=rhombus;perimeter=rhombusPerimeter;whiteSpace=wrap;html=1;align=center;fontFamily=Helvetica;fontSize=11;fontColor=default;labelBackgroundColor=default;" vertex="1" parent="1">
          <mxGeometry x="560" y="650" width="120" height="60" as="geometry" />
        </mxCell>
        <mxCell id="YHpqsiuIh4vbDSGsJm8K-57" style="edgeStyle=none;shape=connector;rounded=0;orthogonalLoop=1;jettySize=auto;html=1;exitX=0.5;exitY=0;exitDx=0;exitDy=0;entryX=0.5;entryY=1;entryDx=0;entryDy=0;strokeColor=default;align=center;verticalAlign=middle;fontFamily=Helvetica;fontSize=11;fontColor=default;labelBackgroundColor=default;endArrow=none;endFill=0;" edge="1" parent="1" source="YHpqsiuIh4vbDSGsJm8K-51" target="YHpqsiuIh4vbDSGsJm8K-50">
          <mxGeometry relative="1" as="geometry" />
        </mxCell>
        <mxCell id="YHpqsiuIh4vbDSGsJm8K-51" value="수량" style="ellipse;whiteSpace=wrap;html=1;align=center;" vertex="1" parent="1">
          <mxGeometry x="600" y="770" width="100" height="40" as="geometry" />
        </mxCell>
        <mxCell id="YHpqsiuIh4vbDSGsJm8K-54" style="edgeStyle=none;shape=connector;rounded=0;orthogonalLoop=1;jettySize=auto;html=1;entryX=0.5;entryY=1;entryDx=0;entryDy=0;strokeColor=default;align=center;verticalAlign=middle;fontFamily=Helvetica;fontSize=11;fontColor=default;labelBackgroundColor=default;endArrow=none;endFill=0;" edge="1" parent="1" source="YHpqsiuIh4vbDSGsJm8K-52" target="YHpqsiuIh4vbDSGsJm8K-50">
          <mxGeometry relative="1" as="geometry" />
        </mxCell>
        <mxCell id="YHpqsiuIh4vbDSGsJm8K-52" value="구매번호" style="ellipse;whiteSpace=wrap;html=1;align=center;fontStyle=4;" vertex="1" parent="1">
          <mxGeometry x="488.5" y="770" width="100" height="40" as="geometry" />
        </mxCell>
        <mxCell id="YHpqsiuIh4vbDSGsJm8K-58" style="edgeStyle=none;shape=connector;rounded=0;orthogonalLoop=1;jettySize=auto;html=1;entryX=0.5;entryY=1;entryDx=0;entryDy=0;strokeColor=default;align=center;verticalAlign=middle;fontFamily=Helvetica;fontSize=11;fontColor=default;labelBackgroundColor=default;endArrow=none;endFill=0;" edge="1" parent="1" source="YHpqsiuIh4vbDSGsJm8K-53" target="YHpqsiuIh4vbDSGsJm8K-50">
          <mxGeometry relative="1" as="geometry" />
        </mxCell>
        <mxCell id="YHpqsiuIh4vbDSGsJm8K-53" value="구매일자" style="ellipse;whiteSpace=wrap;html=1;align=center;" vertex="1" parent="1">
          <mxGeometry x="711.5" y="770" width="100" height="40" as="geometry" />
        </mxCell>
        <mxCell id="YHpqsiuIh4vbDSGsJm8K-61" style="edgeStyle=none;shape=connector;rounded=0;orthogonalLoop=1;jettySize=auto;html=1;exitX=1;exitY=1;exitDx=0;exitDy=0;strokeColor=default;align=center;verticalAlign=middle;fontFamily=Helvetica;fontSize=11;fontColor=default;labelBackgroundColor=default;endArrow=none;endFill=0;" edge="1" parent="1" source="YHpqsiuIh4vbDSGsJm8K-50" target="YHpqsiuIh4vbDSGsJm8K-50">
          <mxGeometry relative="1" as="geometry" />
        </mxCell>
      </root>
    </mxGraphModel>
  </diagram>
</mxfile>
